<?xml version="1.0" encoding="UTF-8" standalone="no"?>
<svg
   width="16"
   height="16"
   version="1.1"
   id="svg4"
   sodipodi:docname="android.svg"
   inkscape:version="1.1.2 (0a00cf5339, 2022-02-04)"
   xmlns:inkscape="http://www.inkscape.org/namespaces/inkscape"
   xmlns:sodipodi="http://sodipodi.sourceforge.net/DTD/sodipodi-0.dtd"
   xmlns="http://www.w3.org/2000/svg"
   xmlns:svg="http://www.w3.org/2000/svg">
  <defs
     id="defs8" />
  <sodipodi:namedview
     id="namedview6"
     pagecolor="#ffffff"
     bordercolor="#666666"
     borderopacity="1.0"
     inkscape:pageshadow="2"
     inkscape:pageopacity="0.0"
     inkscape:pagecheckerboard="0"
     showgrid="false"
     inkscape:zoom="32"
     inkscape:cx="7.234375"
     inkscape:cy="6.515625"
     inkscape:window-width="2490"
     inkscape:window-height="1376"
     inkscape:window-x="1990"
     inkscape:window-y="27"
     inkscape:window-maximized="1"
     inkscape:current-layer="svg4" />
  <path
     id="path870"
     style="fill:#000000;fill-opacity:1;stroke:none;stroke-width:1px;stroke-linecap:butt;stroke-linejoin:miter;stroke-opacity:1"
     d="M 3.171875 2.8398438 C 2.6557828 2.8610376 2.2172176 3.3760689 2.6347656 4.0625 C 3.1959954 4.985138 3.2162152 4.9797249 3.8554688 6.1445312 C 1.9253947 7.4409208 0.76443595 9.5794572 0.26367188 12.027344 C 1.6048199 12.067634 14.391473 12.198068 15.957031 12.070312 C 15.796674 9.936025 14.192315 7.2103319 12.40625 6.203125 C 12.724316 5.5498633 12.91994 5.3223186 13.578125 4.0351562 C 13.979462 3.0999035 12.802118 2.6106256 12.269531 3.3535156 C 11.756642 4.1460412 11.425956 4.7655137 10.914062 5.4746094 C 9.5781004 4.7823781 6.6903299 4.7323652 5.2089844 5.4042969 C 4.6780527 4.6201464 4.655452 4.6384811 3.8515625 3.1464844 C 3.6581657 2.9222431 3.4064624 2.83021 3.171875 2.8398438 z M 4.5136719 8.5039062 C 4.5231677 8.503349 4.5334598 8.5039058 4.5429688 8.5039062 C 4.5864382 8.5039083 4.6305902 8.510043 4.6738281 8.5214844 C 5.0197315 8.6130152 5.2632637 8.6198243 5.1972656 9.1210938 C 5.1312675 9.622363 4.8111573 10.14165 4.4101562 10.058594 C 4.0091553 9.975537 3.7256563 9.7610787 3.8007812 9.4179688 C 3.9343112 8.8081125 4.2192999 8.5211798 4.5136719 8.5039062 z M 11.664062 8.5039062 C 11.968348 8.5038929 12.26646 8.7884398 12.404297 9.4179688 C 12.479423 9.7610792 12.197876 9.9755338 11.796875 10.058594 C 11.395874 10.14165 11.075766 9.6223632 11.009766 9.1210938 C 10.943768 8.619824 11.187299 8.6110622 11.533203 8.5195312 C 11.576441 8.5080899 11.620593 8.5039082 11.664062 8.5039062 z " />
</svg>
