<svg width="160" height="41" fill="none" xmlns="http://www.w3.org/2000/svg"><path d="M18.566.139H0v13.246l7.065 7.107 10.74-10.805L28.56 20.506l-10.755 10.82L7.065 20.52 0 27.628v13.245h18.566c5.37 0 10.52-2.146 14.316-5.965 3.797-3.82 5.93-9 5.93-14.402 0-2.675-.524-5.323-1.541-7.794a20.376 20.376 0 0 0-4.389-6.608 20.24 20.24 0 0 0-6.568-4.415 20.142 20.142 0 0 0-7.748-1.55z" fill="#FF9000"/><path d="M55.884 7.078h4.636V34.58h-4.636V7.078zm9.033 23.513a10.56 10.56 0 0 0 3.695-.615 7.498 7.498 0 0 0 2.87-1.879 8.72 8.72 0 0 0 1.881-3.244c.48-1.52.71-3.107.682-4.7a12.586 12.586 0 0 0-.682-4.406 6.452 6.452 0 0 0-4.595-4.222 13.554 13.554 0 0 0-3.463-.423h-6.933V7.078h6.776c1.839-.016 3.671.202 5.454.649a11.688 11.688 0 0 1 4.363 2.131 9.938 9.938 0 0 1 2.911 3.928 15.66 15.66 0 0 1 1.05 6.1 17.889 17.889 0 0 1-1.05 6.387 12.572 12.572 0 0 1-2.972 4.605 12.356 12.356 0 0 1-4.479 2.78c-1.807.632-3.71.944-5.624.922h-6.395v-3.99h6.51zM85.096 12.14a2.723 2.723 0 0 1-2.045-.786 2.574 2.574 0 0 1-.784-1.9 2.799 2.799 0 0 1 1.415-2.394 2.784 2.784 0 0 1 2.778.018c.408.243.748.586.988.997.246.413.373.886.368 1.366.007.481-.12.954-.368 1.366-.241.405-.581.741-.988.977a2.805 2.805 0 0 1-1.364.356zm-2.222 2.534h4.438V34.58h-4.438V14.674zM90.795 14.673h4.636l6.197 18.793-.232 1.113h-3.825l-6.776-19.906zm19.6 0-6.818 19.906h-3.981l6.579-19.906h4.22zM114.336 7.078h4.636V34.58h-4.636V7.078zm3.061 16.108v-4.024h5.863v4.024h-5.863zm18.604 11.394h-5.624l-10.226-13.348 10.451-14.154h4.977l-11.14 15.028.457-1.96 11.105 14.434zM141.134 12.14a2.722 2.722 0 0 1-2.011-.786 2.587 2.587 0 0 1-.784-1.9 2.789 2.789 0 0 1 4.193-2.377c.409.246.75.589.995.998.24.415.365.887.362 1.366.006.48-.119.952-.362 1.366a2.85 2.85 0 0 1-.995.977c-.427.24-.909.362-1.398.356zm-2.222 2.534h4.438V34.58h-4.438V14.674zM146.758 18.273v-3.6h12.517v3.6h-12.517zm2.373-7.78h4.445v18.369a2.479 2.479 0 0 0 .593 1.824 2.64 2.64 0 0 0 1.929.594 4.42 4.42 0 0 0 1.554-.267 5.535 5.535 0 0 0 1.364-.771v3.722a5.17 5.17 0 0 1-1.82.745 9.905 9.905 0 0 1-2.277.253 6.601 6.601 0 0 1-3.409-.765 4.4 4.4 0 0 1-1.813-2.05 6.831 6.831 0 0 1-.559-2.78l-.007-18.874z" fill="#000"/><path d="M55.884 7.078h4.636V34.58h-4.636V7.078zm9.033 23.513a10.56 10.56 0 0 0 3.695-.615 7.498 7.498 0 0 0 2.87-1.879 8.72 8.72 0 0 0 1.881-3.244c.48-1.52.71-3.107.682-4.7a12.586 12.586 0 0 0-.682-4.406 6.452 6.452 0 0 0-4.595-4.222 13.554 13.554 0 0 0-3.463-.423h-6.933V7.078h6.776c1.839-.016 3.671.202 5.454.649a11.688 11.688 0 0 1 4.363 2.131 9.938 9.938 0 0 1 2.911 3.928 15.66 15.66 0 0 1 1.05 6.1 17.889 17.889 0 0 1-1.05 6.387 12.572 12.572 0 0 1-2.972 4.605 12.356 12.356 0 0 1-4.479 2.78c-1.807.632-3.71.944-5.624.922h-6.395v-3.99h6.51zM85.096 12.14a2.723 2.723 0 0 1-2.045-.786 2.574 2.574 0 0 1-.784-1.9 2.799 2.799 0 0 1 1.415-2.394 2.784 2.784 0 0 1 2.778.018c.408.243.748.586.988.997.246.413.373.886.368 1.366.007.481-.12.954-.368 1.366-.241.405-.581.741-.988.977a2.805 2.805 0 0 1-1.364.356zm-2.222 2.534h4.438V34.58h-4.438V14.674zM90.795 14.673h4.636l6.197 18.793-.232 1.113h-3.825l-6.776-19.906zm19.6 0-6.818 19.906h-3.981l6.579-19.906h4.22zM114.336 7.078h4.636V34.58h-4.636V7.078zm3.061 16.108v-4.024h5.863v4.024h-5.863zm18.604 11.394h-5.624l-10.226-13.348 10.451-14.154h4.977l-11.14 15.028.457-1.96 11.105 14.434zM141.134 12.14a2.722 2.722 0 0 1-2.011-.786 2.587 2.587 0 0 1-.784-1.9 2.789 2.789 0 0 1 4.193-2.377c.409.246.75.589.995.998.24.415.365.887.362 1.366.006.48-.119.952-.362 1.366a2.85 2.85 0 0 1-.995.977c-.427.24-.909.362-1.398.356zm-2.222 2.534h4.438V34.58h-4.438V14.674zM146.758 18.273v-3.6h12.517v3.6h-12.517zm2.373-7.78h4.445v18.369a2.479 2.479 0 0 0 .593 1.824 2.64 2.64 0 0 0 1.929.594 4.42 4.42 0 0 0 1.554-.267 5.535 5.535 0 0 0 1.364-.771v3.722a5.17 5.17 0 0 1-1.82.745 9.905 9.905 0 0 1-2.277.253 6.601 6.601 0 0 1-3.409-.765 4.4 4.4 0 0 1-1.813-2.05 6.831 6.831 0 0 1-.559-2.78l-.007-18.874z" fill="#000"/></svg>