<svg xmlns="http://www.w3.org/2000/svg" width="16" height="16"><path d="M7.896.508A7.5 7.5 0 0 0 .5 8a7.5 7.5 0 0 0 7.178 7.477 9.375 9.375 0 0 1-3.66-7.403A9.375 9.375 0 0 1 7.896.508zM8.191.506A9.375 9.375 0 0 1 11.937 8a9.375 9.375 0 0 1-3.773 7.488A7.5 7.5 0 0 0 15.5 8 7.5 7.5 0 0 0 8.191.506z" style="fill:none;fill-opacity:1;stroke:#000;stroke-width:.75;stroke-miterlimit:4;stroke-dasharray:none;stroke-opacity:1"/><circle cx="8" cy="8" r="7.5" style="fill:none;fill-opacity:1;stroke:#000;stroke-width:1;stroke-miterlimit:4;stroke-dasharray:none;stroke-opacity:1"/><path d="M13.803 3.25A9.375 9.375 0 0 1 8 5.29a9.375 9.375 0 0 1-5.795-2.032A7.5 7.5 0 0 0 .5 8 7.5 7.5 0 0 0 8 15.5 7.5 7.5 0 0 0 15.5 8a7.5 7.5 0 0 0-1.697-4.75z" style="fill:none;fill-opacity:1;stroke:#000;stroke-width:.75;stroke-miterlimit:4;stroke-dasharray:none;stroke-opacity:1"/><path d="M8 .5A7.5 7.5 0 0 0 .5 8a7.5 7.5 0 0 0 1.684 4.715A9.375 9.375 0 0 1 8 10.666a9.375 9.375 0 0 1 5.826 2.035A7.5 7.5 0 0 0 15.5 8 7.5 7.5 0 0 0 8 .5z" style="fill:none;fill-opacity:1;stroke:#000;stroke-width:.75;stroke-miterlimit:4;stroke-dasharray:none;stroke-opacity:1"/><path d="M1 8h14M8 1v14" style="fill:none;stroke:#000;stroke-width:.75;stroke-linecap:butt;stroke-linejoin:miter;stroke-opacity:1;stroke-miterlimit:4;stroke-dasharray:none"/></svg>
