<svg viewBox="0 0 18 18" fill="none" xmlns="http://www.w3.org/2000/svg"><path fill-rule="evenodd" clip-rule="evenodd" d="M5.063 3.938 9 7.874l3.938-3.938L9 0 5.062 3.938Zm6.46 0L9 6.46 6.477 3.937 9 1.414l2.523 2.524ZM5.063 14.063 9 18l3.938-3.938L9 10.126l-3.938 3.938Zm6.46 0L9 16.585l-2.523-2.523L9 11.538l2.523 2.524ZM0 9l3.938-3.938L7.874 9l-3.938 3.938L0 9Zm3.938 2.523L6.46 9 3.937 6.477 1.414 9l2.524 2.523ZM10.125 9l3.938 3.938L18 9l-3.938-3.938L10.126 9Zm6.46 0-2.523 2.523L11.54 9l2.524-2.523L16.585 9Z" fill="#000"/></svg>