<svg viewBox="0 0 16 16" fill="none" xmlns="http://www.w3.org/2000/svg"><path d="m12.593 14.064-.626-1.389a1.433 1.433 0 0 1 1.569-2.057l1.512.247a.5.5 0 0 0 .564-.364l.231-.865a.5.5 0 0 0-.306-.597L14.112 8.5a1.433 1.433 0 0 1-.345-2.564l1.244-.894a.5.5 0 0 0 .141-.656l-.447-.776a.5.5 0 0 0-.64-.205l-1.388.626a1.433 1.433 0 0 1-2.057-1.569L10.867.95a.5.5 0 0 0-.364-.564L9.638.155a.5.5 0 0 0-.597.306l-.539 1.425a1.433 1.433 0 0 1-2.564.345L5.044.987a.5.5 0 0 0-.656-.14l-.776.447a.5.5 0 0 0-.205.638l.626 1.389a1.433 1.433 0 0 1-1.569 2.057L.952 5.131a.5.5 0 0 0-.564.364l-.231.865a.5.5 0 0 0 .306.597l1.425.539a1.433 1.433 0 0 1 .345 2.564l-1.244.894a.5.5 0 0 0-.141.656l.448.776a.5.5 0 0 0 .638.205l1.389-.626a1.433 1.433 0 0 1 2.057 1.57l-.247 1.511a.5.5 0 0 0 .364.564l.865.231a.5.5 0 0 0 .597-.306l.539-1.425a1.433 1.433 0 0 1 2.564-.345l.895 1.244a.5.5 0 0 0 .655.141l.776-.447a.5.5 0 0 0 .205-.64Zm-1.502-5.238A3.2 3.2 0 1 1 4.909 7.17a3.2 3.2 0 0 1 6.182 1.656Z" fill="#000"/></svg>