<svg viewBox="0 0 40 40" fill="none" xmlns="http://www.w3.org/2000/svg"><path fill-rule="evenodd" clip-rule="evenodd" d="M20 35.2c8.395 0 15.2-6.805 15.2-15.2S28.395 4.8 20 4.8 4.8 11.605 4.8 20 11.605 35.2 20 35.2Zm0 4.8c11.046 0 20-8.954 20-20S31.046 0 20 0 0 8.954 0 20s8.954 20 20 20Zm-3.116-25.739c-.585.742-.884 1.81-.884 2.93h-4c0-1.738.45-3.765 1.741-5.405C15.093 10.07 17.195 9 20 9c2.592 0 4.65.69 6.067 2.04C27.487 12.393 28 14.157 28 15.762c0 1.59-.672 2.764-1.614 3.596-.777.686-1.75 1.138-2.427 1.452l-.114.053c-.808.377-1.265.611-1.562.882-.184.167-.283.315-.283.684v1.428h-4V22.43c0-1.596.651-2.788 1.592-3.643.799-.727 1.798-1.192 2.489-1.514l.074-.034c.823-.384 1.281-.612 1.584-.879.183-.162.261-.282.261-.597 0-.776-.237-1.393-.692-1.826C22.85 13.5 21.908 13 20 13c-1.695 0-2.593.596-3.116 1.261ZM20 32a3 3 0 1 0 0-6 3 3 0 0 0 0 6Z" fill="#000"/></svg>