<?xml version="1.0" encoding="utf-8"?><!-- Uploaded to: SVG Repo, www.svgrepo.com, Generator: SVG Repo Mixer Tools -->
<svg width="800px" height="800px" viewBox="0 0 24 24" xmlns="http://www.w3.org/2000/svg"><path d="M23 3v2h-1V4h-1V3zm-1 6h1V7h-1zm-2-6h-2v1h2zm-7 0h-2v1h2zm2 2h1V4h1V3h-3v1h1zm-7 8h1v-2H8zm1-6H8v2h1zm6 2h1V7h-1zm7 4h1v-2h-1zM2 11H1v2h1zm6-6h1V4h1V3H7v1h1zM4 21h2v-1H4zM1 5h1V4h1V3H1zm6 15v1h1.36a16.85 16.85 0 0 1-1.07-1zM2 7H1v2h1zm2-3h2V3H4zM2 15H1v2h1zm0 4H1v2h2v-1H2zm13.504-3.9a2.4 2.4 0 1 0 2.358 2.4 2.382 2.382 0 0 0-2.358-2.4zm7.266 2.095l.23.305-.23.305c-.13.171-3.215 4.195-7.208 4.195-3.989 0-7.183-4.017-7.317-4.188L8 17.5l.245-.312c.134-.17 3.328-4.188 7.317-4.188 3.993 0 7.078 4.024 7.208 4.195zm-.851.306c-.8-.93-3.361-3.601-6.356-3.601-2.991 0-5.628 2.663-6.462 3.6.834.937 3.47 3.6 6.462 3.6 3.002 0 5.557-2.67 6.356-3.6z"/><path fill="none" d="M0 0h24v24H0z"/></svg>