<svg xmlns="http://www.w3.org/2000/svg" width="20" height="20" fill="none"><path fill="#fff" d="M4.167 4.167V7.5H7.5V4.167H4.167Zm-1.667 0c0-.92.746-1.667 1.667-1.667H7.5c.92 0 1.667.746 1.667 1.667V7.5c0 .92-.747 1.667-1.667 1.667H4.167C3.247 9.167 2.5 8.42 2.5 7.5V4.167ZM4.167 12.5v3.333H7.5V12.5H4.167Zm-1.667 0c0-.92.746-1.667 1.667-1.667H7.5c.92 0 1.667.746 1.667 1.667v3.333c0 .92-.747 1.667-1.667 1.667H4.167c-.92 0-1.667-.746-1.667-1.667V12.5Zm13.333 3.333H12.5V12.5h3.333v3.333Zm-3.333-5c-.92 0-1.667.746-1.667 1.667v3.333c0 .92.746 1.667 1.667 1.667h3.333c.92 0 1.667-.746 1.667-1.667V12.5c0-.92-.746-1.667-1.667-1.667H12.5Zm.833-7.5a.833.833 0 0 1 1.667 0V5h1.667a.833.833 0 0 1 0 1.667H15v1.666a.833.833 0 1 1-1.667 0V6.667h-1.666a.833.833 0 1 1 0-1.667h1.666V3.333Z"/></svg>
