<svg xmlns="http://www.w3.org/2000/svg" width="20" height="20" fill="none"><path fill="#fff" d="M16.286 4.857A.857.857 0 0 0 15.429 4h-2.572a.857.857 0 0 0 0 1.714h1.714v2.572c0 .227.09.445.252.606l.566.566c.24.22.454.328.642.381.201.057.566.1.566.1v.118s-.415.04-.566.09l-.022.008c-.13.043-.313.103-.553.32l-.633.633a.857.857 0 0 0-.252.606v2.572h-1.714a.857.857 0 0 0 0 1.714h2.572a.857.857 0 0 0 .857-.857v-3.074l1.463-1.463a.857.857 0 0 0 0-1.212L16.286 7.93V4.857ZM3.714 4.857c0-.473.384-.857.857-.857h2.572a.857.857 0 0 1 0 1.714H5.429v2.572c0 .227-.09.445-.251.606l-.52.52c-.261.25-.493.37-.693.427-.201.057-.566.1-.566.1v.118s.415.04.566.09l.022.008c.15.05.371.122.67.434l.52.52c.161.16.252.378.252.605v2.572h1.714a.857.857 0 0 1 0 1.714H4.57a.857.857 0 0 1-.857-.857v-3.074l-1.463-1.463a.857.857 0 0 1 0-1.212L3.714 7.93V4.857Z"/></svg>
