<svg xmlns="http://www.w3.org/2000/svg" width="40" height="40" fill="none"><path fill="#fff" fill-rule="evenodd" d="M8.122 15.929h3.172c1.109 0 1.954.173 2.535.52.58.346.87.931.87 1.755 0 .338-.047.632-.142.884a1.845 1.845 0 0 1-.416.637 2.112 2.112 0 0 1-.637.429c-.252.112-.53.199-.832.26.78.095 1.369.307 1.768.637.398.329.598.832.598 1.508 0 .485-.096.901-.286 1.248a2.35 2.35 0 0 1-.793.832 3.917 3.917 0 0 1-1.196.468c-.46.095-.958.143-1.495.143H8.122v-9.321Zm1.573 1.365v2.483h1.677c.52 0 .94-.109 1.26-.325.321-.226.482-.577.482-1.053 0-.434-.148-.724-.442-.871-.286-.156-.694-.234-1.222-.234H9.695Zm0 3.835v2.769h1.729c.294 0 .563-.022.806-.065.242-.052.45-.13.624-.234.173-.113.307-.256.403-.43.095-.181.143-.402.143-.662 0-.512-.17-.867-.507-1.066-.33-.208-.863-.312-1.6-.312H9.696Z" clip-rule="evenodd"/><path fill="#fff" d="M20.08 17.294v7.956h-1.587v-7.956H15.66v-1.365H22.9v1.365h-2.82ZM29.848 25.25h2.04v-9.321h-1.43v7.37l-4.16-7.37h-2.053v9.32h1.43v-7.383l4.173 7.384Z"/><path fill="#fff" fill-rule="evenodd" d="M2 14a6 6 0 0 1 6-6h24a6 6 0 0 1 6 6v12a6 6 0 0 1-6 6H8a6 6 0 0 1-6-6V14Zm6-4h24a4 4 0 0 1 4 4v12a4 4 0 0 1-4 4H8a4 4 0 0 1-4-4V14a4 4 0 0 1 4-4Z" clip-rule="evenodd"/></svg>
