<svg xmlns="http://www.w3.org/2000/svg" width="40" height="40" fill="none"><path fill="#fff" d="M15 8a1 1 0 0 1-1 1h-3.5A1.5 1.5 0 0 0 9 10.5V14a1 1 0 1 1-2 0v-3.5A3.5 3.5 0 0 1 10.5 7H14a1 1 0 0 1 1 1ZM8 25a1 1 0 0 1 1 1v3.5a1.5 1.5 0 0 0 1.5 1.5H14a1 1 0 1 1 0 2h-3.5A3.5 3.5 0 0 1 7 29.5V26a1 1 0 0 1 1-1ZM31 14a1 1 0 1 0 2 0v-3.5A3.5 3.5 0 0 0 29.5 7H26a1 1 0 1 0 0 2h3.5a1.5 1.5 0 0 1 1.5 1.5V14ZM25 32a1 1 0 0 1 1-1h3.5a1.5 1.5 0 0 0 1.5-1.5V26a1 1 0 1 1 2 0v3.5a3.5 3.5 0 0 1-3.5 3.5H26a1 1 0 0 1-1-1ZM15.758 25.657a1 1 0 0 1-1.414-1.414l4.242-4.242-4.242-4.242a1 1 0 0 1 1.414-1.414L20 18.587l4.243-4.243a1 1 0 0 1 1.414 1.414L21.414 20l4.243 4.243a1 1 0 1 1-1.414 1.415L20 21.415l-4.242 4.242Z"/></svg>
