<svg xmlns="http://www.w3.org/2000/svg" width="40" height="40" fill="none"><path fill="#fff" fill-rule="evenodd" d="M16.059 8.468A2 2 0 0 1 17.344 8H31.51c1.867 0 2.716 2.332 1.286 3.532L30.332 13.6h1.6c1.815 0 2.691 2.224 1.363 3.462l-3.203 2.988h1.835c1.816 0 2.692 2.224 1.364 3.462l-8.579 8a2 2 0 0 1-1.364.538H9.004c-1.816 0-2.692-2.225-1.364-3.463l3.204-2.987H9.009c-1.816 0-2.692-2.225-1.364-3.463L11.009 19H9.003c-1.867 0-2.716-2.332-1.286-3.532l8.34-7ZM13.94 19l-4.932 4.6h14.344l8.578-8h-3.98l-3.494 2.932A2 2 0 0 1 23.17 19h-9.23Zm-.165 6.6-4.772 4.45h14.344l8.579-8h-3.98l-3.23 3.012a2 2 0 0 1-1.364.538h-9.577ZM31.51 10H17.344l-8.34 7h14.165l8.341-7Z" clip-rule="evenodd"/></svg>