<svg xmlns="http://www.w3.org/2000/svg" width="40" height="40" fill="none"><path fill="#fff" d="M18.753 21.308c0 .546-.082 1.053-.247 1.521-.165.46-.416.862-.754 1.209a3.645 3.645 0 0 1-1.274.806c-.503.19-1.096.286-1.781.286a4.863 4.863 0 0 1-1.846-.338 4.082 4.082 0 0 1-1.43-.962 4.285 4.285 0 0 1-.923-1.508c-.217-.59-.325-1.248-.325-1.976s.104-1.387.312-1.976a4.19 4.19 0 0 1 .936-1.508 4.204 4.204 0 0 1 1.534-.962c.615-.225 1.322-.338 2.119-.338.399 0 .75.026 1.053.078.312.043.59.104.832.182.243.07.455.152.637.247s.347.186.494.273v1.404a6.704 6.704 0 0 0-1.313-.585c-.468-.165-1.027-.247-1.677-.247-1.135 0-1.963.303-2.483.91-.52.598-.78 1.439-.78 2.522 0 1.092.247 1.937.741 2.535.503.598 1.213.897 2.132.897.433 0 .806-.056 1.118-.169.312-.121.563-.282.754-.481.2-.208.342-.45.429-.728.095-.286.143-.598.143-.936v-.078h-2.73v-1.352h4.329v1.274Zm3.136-5.629V25h-1.573v-9.321h1.573Zm1.994 0h5.928v1.365h-4.355v2.73h3.692v1.352h-3.692V25h-1.573v-9.321Z"/></svg>
