<svg xmlns="http://www.w3.org/2000/svg" width="40" height="40" fill="none"><path fill="#fff" fill-rule="evenodd" d="M10 9a3 3 0 1 0 0 6 3 3 0 0 0 0-6Zm-1 3a1 1 0 1 1 2 0 1 1 0 0 1-2 0ZM10 17a3 3 0 1 0 0 6 3 3 0 0 0 0-6Zm-1 3a1 1 0 1 1 2 0 1 1 0 0 1-2 0ZM7 28a3 3 0 1 1 6 0 3 3 0 0 1-6 0Zm3-1a1 1 0 1 0 0 2 1 1 0 0 0 0-2Z" clip-rule="evenodd"/><path fill="#fff" d="M16 12a1 1 0 0 0 1 1h15a1 1 0 1 0 0-2H17a1 1 0 0 0-1 1ZM17 21a1 1 0 1 1 0-2h15a1 1 0 1 1 0 2H17ZM16 28a1 1 0 0 0 1 1h15a1 1 0 1 0 0-2H17a1 1 0 0 0-1 1Z"/></svg>
