<svg xmlns="http://www.w3.org/2000/svg" width="40" height="40" fill="none"><path fill="#fff" fill-rule="evenodd" d="M29 16a5 5 0 1 0 0-10 5 5 0 0 0 0 10Zm0-2a3 3 0 1 0 0-6 3 3 0 0 0 0 6Z" clip-rule="evenodd"/><path fill="#fff" d="M5.104 22.556a1 1 0 0 1 1.34-.452c.754.374 1.404.753 1.994 1.175a1 1 0 1 1-1.166 1.625 12.214 12.214 0 0 0-1.716-1.008 1 1 0 0 1-.452-1.34Zm5.102 3.848a1 1 0 0 1 1.395.235c.383.537.787 1.136 1.232 1.809a1 1 0 1 1-1.667 1.105 63.971 63.971 0 0 0-1.194-1.754 1 1 0 0 1 .234-1.395Zm13.497-8.692a1 1 0 0 0-1.406-1.424 41.525 41.525 0 0 0-1.618 1.678 1 1 0 0 0 1.483 1.342 39.6 39.6 0 0 1 1.54-1.596Zm-4.099 5.081a1 1 0 1 0-1.736-.992c-.699 1.223-1.333 2.616-1.937 4.303a1 1 0 0 0 1.883.674c.572-1.596 1.16-2.88 1.79-3.985Zm-3.087 8.25a1 1 0 0 0-1.935-.508c-.185.704-.37 1.448-.555 2.236a1 1 0 0 0 1.946.458c.183-.773.363-1.5.544-2.186Z"/></svg>