<svg xmlns="http://www.w3.org/2000/svg" width="32" height="32" fill="none"><path fill="#fff" d="M14.419 22.667h.819c.2 0 .372-.143.41-.34l2.343-12.5a.417.417 0 0 0-.41-.494h-.819c-.2 0-.372.143-.41.34l-2.343 12.5a.417.417 0 0 0 .41.494Zm-6.393-5.585 4.404 3.049a.417.417 0 0 0 .653-.343v-.668a.415.415 0 0 0-.16-.328L9.332 16l3.59-2.791c.101-.08.16-.2.16-.33v-.667a.417.417 0 0 0-.653-.343l-4.404 3.05a.833.833 0 0 0-.36.684v.794c0 .273.135.53.36.685Zm15.948 0L19.57 20.13a.417.417 0 0 1-.653-.343v-.668c0-.128.059-.25.16-.328L22.668 16l-3.59-2.791a.417.417 0 0 1-.16-.33v-.667c0-.336.377-.534.653-.343l4.404 3.05a.833.833 0 0 1 .36.684v.794c0 .273-.135.53-.36.685Z"/></svg>