<svg xmlns="http://www.w3.org/2000/svg" width="32" height="32" fill="none"><g fill="#fff"><path d="m10.376 11.584-1.599-1.066a.5.5 0 0 0-.777.416v2.132a.5.5 0 0 0 .777.416l1.599-1.066a.5.5 0 0 0 0-.832zM11.833 12.042c0-.46.373-.833.833-.833h10a.833.833 0 0 1 0 1.666h-10a.833.833 0 0 1-.833-.833zM15.167 16.208c0-.46.373-.833.833-.833h6.667a.833.833 0 1 1 0 1.666H16a.833.833 0 0 1-.833-.833zM16 19.542a.833.833 0 0 0 0 1.667h6.667a.833.833 0 0 0 0-1.667H16zM12.875 15.166a1.042 1.042 0 1 0 0 2.083 1.042 1.042 0 0 0 0-2.083zM11.833 20.375a1.042 1.042 0 1 1 2.083 0 1.042 1.042 0 0 1-2.083 0z"/></g></svg>