<svg xmlns="http://www.w3.org/2000/svg" width="24" height="24" fill="none"><path fill="#fff" d="M3.515 17.886c2.438 3.06 7.034 4.63 10.866 3.601 5.28-1.417 8.413-6.855 6.998-12.145-1.027-3.841-4.681-7.045-8.546-7.63a.991.991 0 0 0-1.019 1.45c1.87 3.48 2.024 6.459.53 9.05-1.492 2.591-4.143 3.947-8.085 4.064a.992.992 0 0 0-.744 1.61Zm15.952-8.031c1.132 4.232-1.374 8.582-5.598 9.716-2.408.647-5.678.002-7.739-1.5 3.437-.55 6.382-2.183 7.929-4.868 1.547-2.684 1.479-6.05.235-9.308 2.328 1.037 4.528 3.546 5.173 5.96Z"/></svg>