<svg xmlns="http://www.w3.org/2000/svg" width="20" height="20" fill="none"><path fill="#fff" d="M5.45 3.811h4.13c1.338 0 2.352.227 3.043.68.703.453 1.055 1.218 1.055 2.295 0 .442-.063.827-.188 1.156a2.46 2.46 0 0 1-.492.833 2.435 2.435 0 0 1-.765.561c-.295.147-.624.26-.987.34.952.113 1.666.391 2.143.833.487.43.73 1.088.73 1.972 0 .635-.118 1.179-.357 1.632a2.937 2.937 0 0 1-.952 1.088 4.52 4.52 0 0 1-1.444.612 8.303 8.303 0 0 1-1.82.187H5.45V3.811Zm1.597 1.462v3.74h2.414c.386 0 .737-.04 1.054-.119.318-.09.59-.221.816-.391.227-.181.403-.402.527-.663.136-.272.204-.595.204-.969 0-.623-.215-1.043-.646-1.258-.43-.227-1.042-.34-1.836-.34H7.047Zm0 5.185v4.097h2.5c.43 0 .821-.034 1.172-.102.352-.068.652-.181.902-.34.26-.159.458-.368.595-.629.147-.26.22-.584.22-.969 0-.77-.249-1.303-.748-1.598-.487-.306-1.263-.459-2.329-.459H7.047Z"/></svg>