<svg xmlns="http://www.w3.org/2000/svg" width="20" height="20" fill="none"><path fill="#fff" d="M14.83 17.5H5.17c-.928 0-1.265-.097-1.604-.278a1.893 1.893 0 0 1-.788-.788c-.181-.34-.278-.676-.278-1.605V5.171c0-.929.097-1.266.278-1.605.182-.34.448-.606.788-.788.34-.181.676-.278 1.605-.278h9.658c.929 0 1.266.097 1.605.278.34.182.606.448.788.788.181.34.278.676.278 1.605v9.658c0 .929-.097 1.266-.278 1.605-.182.34-.448.606-.788.788-.34.181-.676.278-1.605.278ZM7.5 15.833h8.333v-3.788L13.08 9.596l-2.575 3.863a1.25 1.25 0 0 1-1.716.358l-1.914-1.231-2.393 3.247H7.5Zm-3.333-2.5c0 .182-.01.408-.027.653.31-.647.775-1.533 1.241-2.184l.383-.52a1.25 1.25 0 0 1 1.682-.31l1.899 1.221 2.613-3.92a1.25 1.25 0 0 1 1.87-.24l2.005 1.782V5.17c0-.356-.015-.578-.04-.708a.294.294 0 0 0-.041-.111.228.228 0 0 0-.104-.104.293.293 0 0 0-.111-.04 4.169 4.169 0 0 0-.708-.041H5.171c-.356 0-.578.015-.708.04a.294.294 0 0 0-.111.041.229.229 0 0 0-.104.104.294.294 0 0 0-.04.111c-.026.13-.041.352-.041.708v8.162Zm3.116-7.5c-.809 0-1.45.607-1.45 1.45s.641 1.467 1.45 1.467c.826 0 1.467-.624 1.467-1.467 0-.843-.64-1.45-1.467-1.45Z"/></svg>