<svg xmlns="http://www.w3.org/2000/svg" width="24" height="24" fill="none"><path fill="#fff" d="M15.106.409a1 1 0 0 0-1.224.707l-.647 2.415a1 1 0 1 0 1.931.517l.647-2.414a1 1 0 0 0-.707-1.225ZM5.5 11.999a6.5 6.5 0 1 0 13 .001 6.5 6.5 0 0 0-13 0Zm11 0a4.5 4.5 0 1 1-9 0 4.5 4.5 0 0 1 9 0Zm-7.665 7.952a1 1 0 1 1 1.931.518l-.647 2.415a1 1 0 1 1-1.931-.518l.647-2.415Zm-4.696-4.567a1 1 0 0 1 1 1.732l-2.165 1.25a1 1 0 0 1-1-1.732l2.165-1.25ZM22.393 6a1 1 0 0 0-1.366-.366l-2.165 1.25a1 1 0 0 0 1 1.732l2.165-1.25A1 1 0 0 0 22.393 6ZM4.049 8.834a1 1 0 1 1-.518 1.932l-2.415-.647a1 1 0 0 1 .518-1.932l2.415.647Zm19.543 6.272a1 1 0 0 0-.708-1.225l-2.414-.647a1 1 0 1 0-.518 1.932l2.415.647a1 1 0 0 0 1.224-.707ZM8.615 4.139a1 1 0 1 1-1.732 1l-1.25-2.165a1 1 0 1 1 1.732-1l1.25 2.165ZM18 22.392a1 1 0 0 0 .366-1.366l-1.25-2.165a1 1 0 0 0-1.732 1l1.25 2.165a1 1 0 0 0 1.366.366Z"/></svg>