<svg xmlns="http://www.w3.org/2000/svg" width="20" height="20" fill="none"><path fill="#fff" d="M9.1 7.362a2.5 2.5 0 0 0 0 3.535.833.833 0 1 1-1.178 1.179 4.167 4.167 0 0 1 0-5.893l2.946-2.946a4.167 4.167 0 1 1 5.893 5.893l-.91.91a.833.833 0 0 1-1.18-1.178l.911-.911a2.5 2.5 0 0 0-3.535-3.535L9.1 7.361Zm1.768 5.302a2.5 2.5 0 0 0 0-3.535.833.833 0 1 1 1.178-1.179 4.167 4.167 0 0 1 0 5.893L9.13 16.759a4.167 4.167 0 1 1-5.893-5.892l.854-.855a.833.833 0 0 1 1.179 1.179l-.854.854a2.5 2.5 0 1 0 3.535 3.536l2.917-2.917Z"/></svg>