<svg xmlns="http://www.w3.org/2000/svg" width="16" height="16" fill="none"><path fill="url(#a)" d="M8.036 2.002H2.571v3.902l2.08 2.094 3.161-3.183 3.166 3.187-3.166 3.188L4.65 8.006 2.57 10.1v3.902h5.466a5.94 5.94 0 0 0 4.214-1.757 6.02 6.02 0 0 0 1.746-4.243c0-.788-.155-1.568-.454-2.296a6.004 6.004 0 0 0-1.292-1.947 5.925 5.925 0 0 0-4.214-1.757Z"/><path fill="url(#b)" fill-rule="evenodd" d="m4.651 7.997-.317-.318L2.57 5.904V2.002h2.434L8.02 5.017l-.003.004-.205-.206-3.16 3.182Z" clip-rule="evenodd"/><path fill="url(#c)" fill-rule="evenodd" d="m5 13.998 2.812-2.813L4.65 8.002l-2.08 2.094v3.902H5Z" clip-rule="evenodd"/><defs><linearGradient id="a" x1="8.283" x2="8.283" y1="2.002" y2="14.002" gradientUnits="userSpaceOnUse"><stop stop-color="#464AEE"/><stop offset="1" stop-color="#8E59FF"/></linearGradient><linearGradient id="b" x1="6.401" x2="2.36" y1="2.581" y2="6.627" gradientUnits="userSpaceOnUse"><stop stop-color="#fff" stop-opacity=".31"/><stop offset="1" stop-color="#fff" stop-opacity="0"/></linearGradient><linearGradient id="c" x1="6.28" x2="2.237" y1="13.524" y2="9.495" gradientUnits="userSpaceOnUse"><stop stop-color="#fff" stop-opacity=".31"/><stop offset="1" stop-color="#fff" stop-opacity="0"/></linearGradient></defs></svg>