<svg xmlns="http://www.w3.org/2000/svg" width="20" height="20" fill="none"><g fill="#fff" fill-rule="evenodd" clip-rule="evenodd"><path d="M6.559 4.023C5.139 5.63 4.198 7.817 4.15 9.933c-.052 2.342.882 4.323 2.044 5.782a9.788 9.788 0 0 0 1.78 1.74c.586.435 1.059.66 1.321.726.782.196 1.495.244 2.018.035.425-.17.902-.396 1.085-1.578-.01-.396-.134-.988-.307-1.587l-.08-.274c-.212-.745-.443-1.656-.443-2.802 0-.856.456-1.428.952-1.835.24-.196.507-.37.76-.529l.225-.14c.182-.113.358-.223.542-.345.502-.335.961-.706 1.322-1.218.35-.498.637-1.17.732-2.15-.008-.86-.27-1.77-.925-2.507-.658-.74-1.788-1.392-3.69-1.582-1.707-.17-3.501.74-4.927 2.354Zm-1.236-1.09C6.961 1.077 9.236-.213 11.65.028c2.219.222 3.768 1.013 4.758 2.127.983 1.107 1.341 2.448 1.341 3.638v.037l-.003.038c-.115 1.266-.496 2.23-1.03 2.988-.527.75-1.175 1.254-1.755 1.64-.207.139-.419.27-.609.388l-.196.122a5.886 5.886 0 0 0-.591.408c-.29.237-.349.387-.349.56 0 .915.182 1.652.38 2.35l.075.256c.175.595.376 1.445.376 2.113v.058l-.008.058c-.237 1.655-1 2.49-2.114 2.936-1.022.409-2.163.251-3.03.034-.561-.14-1.236-.506-1.904-1.003a11.436 11.436 0 0 1-2.086-2.035C3.566 15.06 2.44 12.715 2.502 9.897c.057-2.55 1.176-5.102 2.821-6.965Z"/><path d="M11.568 4.146a1.648 1.648 0 1 0 0 3.297 1.648 1.648 0 0 0 0-3.297ZM8.27 5.794a3.297 3.297 0 1 1 6.594 0 3.297 3.297 0 0 1-6.594 0Zm-.929 4.05a.789.789 0 1 0 0 1.578.789.789 0 0 0 0-1.578Zm-2.366.79a2.367 2.367 0 1 1 4.733 0 2.367 2.367 0 0 1-4.733 0Zm4.366 4.093a.379.379 0 1 0 0 .757.379.379 0 0 0 0-.757Zm-1.894.379a1.894 1.894 0 1 1 3.788 0 1.894 1.894 0 0 1-3.788 0Z"/></g></svg>