<svg xmlns="http://www.w3.org/2000/svg" width="32" height="32" fill="none"><path fill="#fff" d="M18.5 15.167a3.335 3.335 0 0 1-3.228-2.5H8.5A.833.833 0 0 1 8.5 11h6.772a3.335 3.335 0 0 1 6.456 0H23.5a.833.833 0 0 1 0 1.667h-1.772a3.335 3.335 0 0 1-3.228 2.5Zm-10 4.166A.833.833 0 0 0 8.5 21h1.772a3.335 3.335 0 0 0 6.456 0H23.5a.833.833 0 0 0 0-1.667h-6.772a3.335 3.335 0 0 0-6.456 0H8.5Zm10-5.833a1.667 1.667 0 1 0 0-3.333 1.667 1.667 0 0 0 0 3.333Zm-3.333 6.667a1.667 1.667 0 1 1-3.334 0 1.667 1.667 0 0 1 3.334 0Z"/></svg>