<svg xmlns="http://www.w3.org/2000/svg" width="20" height="20" fill="none"><path fill="#fff" d="M5 6.667c.46 0 .833-.373.833-.834v-.897c0-.382.018-.476.069-.57a.303.303 0 0 1 .13-.13c.095-.051.188-.07.57-.07h8.462c.382 0 .476.019.57.07.059.03.1.071.13.13.051.094.07.188.07.57v10.128c0 .382-.019.476-.07.57a.303.303 0 0 1-.13.13c-.094.051-.188.07-.57.07H6.602c-.382 0-.475-.019-.57-.07a.303.303 0 0 1-.13-.13c-.05-.094-.069-.188-.069-.57v-.897a.833.833 0 1 0-1.666 0v.897c0 .634.068.988.265 1.356.187.35.466.628.814.815.37.197.723.265 1.356.265h8.462c.634 0 .988-.068 1.356-.265a1.97 1.97 0 0 0 .815-.815c.197-.369.265-.722.265-1.356V4.936c0-.634-.068-.987-.265-1.356a1.97 1.97 0 0 0-.815-.815c-.369-.197-.722-.265-1.356-.265H6.602c-.633 0-.987.068-1.356.265a1.97 1.97 0 0 0-.814.815c-.197.369-.265.722-.265 1.356v.897c0 .46.373.834.833.834Zm7.995 2.452a1.248 1.248 0 0 1 0 1.763l-2.403 2.41a.84.84 0 0 1-1.184 0 .83.83 0 0 1 0-1.175 7.963 7.963 0 0 1 1.408-1.122l.322-.201-.172-.172a8.334 8.334 0 0 1-1.866.212H2.498a.833.833 0 0 1 0-1.667H9.1a8.37 8.37 0 0 1 1.866.212l.172-.171-.321-.202a7.971 7.971 0 0 1-1.409-1.123.83.83 0 0 1 0-1.175.84.84 0 0 1 1.184 0l2.402 2.411Z"/></svg>