<svg xmlns="http://www.w3.org/2000/svg" width="20" height="20" fill="none"><path fill="#fff" fill-rule="evenodd" d="M7.083 5.625a1.458 1.458 0 1 0 0-2.917 1.458 1.458 0 0 0 0 2.917Zm0 11.666a1.458 1.458 0 1 0 0-2.916 1.458 1.458 0 0 0 0 2.916ZM8.542 10a1.458 1.458 0 1 1-2.917 0 1.458 1.458 0 0 1 2.917 0Zm4.375-4.375a1.458 1.458 0 1 0 0-2.917 1.458 1.458 0 0 0 0 2.917Zm1.458 10.208a1.458 1.458 0 1 1-2.917 0 1.458 1.458 0 0 1 2.917 0Zm-1.458-4.375a1.458 1.458 0 1 0 0-2.917 1.458 1.458 0 0 0 0 2.917Z" clip-rule="evenodd"/></svg>