<svg xmlns="http://www.w3.org/2000/svg" width="32" height="32" fill="none"><path fill="#fff" d="M10 15.5h12V17H10z"/><path fill="#fff" fill-rule="evenodd" d="M18.614 15.912c.248.164.467.36.66.588h-5.558a5.172 5.172 0 0 1-1.418-.694 3.524 3.524 0 0 1-.93-1.06c-.234-.436-.35-.983-.35-1.643 0-1.165.415-2.054 1.245-2.667.83-.624 2.024-.936 3.58-.936.455 0 .859.03 1.21.088.35.047.666.112.947.195.28.07.52.153.72.247.21.082.391.165.543.247v1.89c-.842-.553-1.965-.83-3.368-.83-.983 0-1.69.147-2.123.441a1.347 1.347 0 0 0-.632 1.184c0 .318.07.583.21.795.141.2.334.37.58.512.245.13.526.241.842.336.316.082.65.165 1 .247a26 26 0 0 1 1.491.406c.503.153.953.371 1.351.654ZM15.105 22.5a9.083 9.083 0 0 1-1.456-.106 6.957 6.957 0 0 1-1.158-.283A5.15 5.15 0 0 1 11 21.317v-1.89c.175.14.403.288.684.441.293.142.614.271.965.389.363.117.749.218 1.158.3.41.07.83.106 1.263.106.842 0 1.515-.135 2.018-.406.503-.271.754-.719.754-1.343 0-.33-.064-.6-.193-.812a1.381 1.381 0 0 0-.068-.102h2.37c.033.217.049.451.049.702 0 .73-.14 1.337-.421 1.82a3.243 3.243 0 0 1-1.088 1.166 4.744 4.744 0 0 1-1.561.635 9.227 9.227 0 0 1-1.825.177Z" clip-rule="evenodd"/></svg>