<svg xmlns="http://www.w3.org/2000/svg" width="20" height="20" fill="none"><path fill="#fff" d="M4 9.5h12V11H4z"/><path fill="#fff" fill-rule="evenodd" d="M12.614 9.912c.248.163.467.36.66.588H7.716l-.12-.04a5.173 5.173 0 0 1-1.299-.654 3.524 3.524 0 0 1-.93-1.06c-.233-.436-.35-.983-.35-1.643 0-1.165.415-2.055 1.245-2.667.83-.624 2.024-.936 3.58-.936.455 0 .859.03 1.21.088.35.047.666.112.947.195.28.07.52.153.72.247a4.9 4.9 0 0 1 .543.247v1.89c-.842-.553-1.965-.83-3.368-.83-.983 0-1.69.147-2.123.442a1.347 1.347 0 0 0-.632 1.183c0 .318.07.583.21.795.141.2.334.37.58.512.245.13.526.241.842.336.316.082.65.164 1 .247a26 26 0 0 1 1.491.406c.503.153.953.371 1.351.654ZM9.105 16.5a9.082 9.082 0 0 1-1.456-.106 6.955 6.955 0 0 1-1.158-.283A5.152 5.152 0 0 1 5 15.317v-1.89c.175.14.404.288.684.441.293.141.614.271.965.389.363.117.749.218 1.158.3.41.07.83.106 1.263.106.842 0 1.515-.135 2.018-.406.503-.271.754-.718.754-1.343 0-.33-.064-.6-.193-.812a1.381 1.381 0 0 0-.068-.102h2.37c.033.217.049.451.049.702 0 .73-.14 1.337-.421 1.82a3.243 3.243 0 0 1-1.088 1.165 4.744 4.744 0 0 1-1.561.636 9.227 9.227 0 0 1-1.825.177Z" clip-rule="evenodd"/></svg>