<svg xmlns="http://www.w3.org/2000/svg" width="28" height="28"><path fill="#fff" d="m14.598 21.912-1.465-4.219H6.84l-1.464 4.22H1.918L7.942 5.4h4.078l6 16.512zM9.981 7.943l-.07.258q-.118.422-.282.961-.164.54-2.015 5.93h4.746l-1.629-4.746-.504-1.594z" style="font-size:24px;line-height:1.25"/><path fill="#fff" d="m24.059 21.911-.814-2.343h-3.496l-.814 2.343h-1.92l3.346-9.173h2.265l3.334 9.173zm-2.566-7.76-.039.143q-.065.235-.156.534-.091.3-1.12 3.294h2.637l-.905-2.636-.28-.886z" style="font-size:13.333px;line-height:1.25"/></svg>