<svg xmlns="http://www.w3.org/2000/svg" width="20" height="20" fill="none"><path fill="#fff" d="M9.119 2.032a1.248 1.248 0 0 1 1.764 0l2.826 2.82a.84.84 0 0 1 0 1.184.83.83 0 0 1-1.175 0l-.388-.389a8.328 8.328 0 0 1-1.173-1.473l-.18-.287-.17.173c.14.611.211 1.237.211 1.866v6.601a.833.833 0 0 1-1.667 0V5.926c0-.629.072-1.255.212-1.866l-.171-.173-.18.287a8.333 8.333 0 0 1-1.172 1.473l-.389.389a.83.83 0 0 1-1.175 0 .84.84 0 0 1 0-1.184l2.827-2.82Zm7.548 7.162a.833.833 0 0 0-.833.833v5.065c0 .382-.018.475-.068.57a.303.303 0 0 1-.131.13c-.094.05-.188.069-.57.069H4.936c-.382 0-.475-.018-.57-.069a.303.303 0 0 1-.13-.13c-.05-.095-.069-.188-.069-.57v-5.065a.833.833 0 1 0-1.667 0v5.065c0 .633.069.987.266 1.356.187.348.466.627.815.814.368.197.722.265 1.355.265h10.129c.634 0 .987-.068 1.356-.265a1.97 1.97 0 0 0 .814-.814c.198-.37.266-.723.266-1.357v-5.064a.833.833 0 0 0-.834-.833Z"/></svg>