<svg width="160" height="42" viewBox="0 0 160 42" fill="none" xmlns="http://www.w3.org/2000/svg">
<path d="M18.6505 0.138672H0V13.4714L7.0967 20.6245L17.8861 9.7494L28.6898 20.6387L17.8861 31.5287L7.0967 20.6536L0 27.8066V41.1387H18.6505C24.0445 41.1387 29.2176 38.9787 33.0318 35.1343C36.8459 31.2898 38.9887 26.0756 38.9887 20.6387C38.9887 17.9466 38.4627 15.2806 37.4406 12.7935C36.4185 10.3063 34.9204 8.04666 33.0318 6.14307C31.1432 4.23948 28.9012 2.72926 26.4337 1.69905C23.9661 0.668834 21.3214 0.138672 18.6505 0.138672V0.138672Z" fill="#FF9000"/>
<path d="M56.1382 7.12288H60.795V34.8041H56.1382V7.12288ZM65.2122 30.7888C66.4763 30.8058 67.7332 30.5963 68.924 30.1701C70.0176 29.7717 71.0044 29.1246 71.8072 28.2793C72.6659 27.3413 73.3109 26.2268 73.6973 25.0133C74.179 23.4841 74.4103 21.8866 74.3822 20.283C74.4191 18.7755 74.1872 17.2735 73.6973 15.848C73.3478 14.8061 72.7412 13.87 71.9341 13.127C71.127 12.384 70.1456 11.8582 69.0815 11.5988C67.9449 11.3071 66.7757 11.1641 65.6026 11.1727H58.6378V7.12288H65.445C67.2914 7.10691 69.1324 7.32653 70.9237 7.7762C72.518 8.17576 74.0111 8.9063 75.3067 9.92115C76.5943 10.9738 77.5995 12.3328 78.2309 13.8746C78.9866 15.8302 79.3452 17.9179 79.2855 20.0147C79.327 22.2042 78.9696 24.383 78.2309 26.4435C77.5874 28.19 76.5679 29.7722 75.245 31.0775C73.963 32.3241 72.4284 33.2788 70.7457 33.8761C68.9303 34.5122 67.0185 34.8261 65.0958 34.8041H58.6721V30.7888H65.2122Z" fill="black"/>
<path d="M85.4836 12.2175C85.1053 12.2354 84.7274 12.1743 84.3738 12.0382C84.0202 11.9021 83.6985 11.6937 83.4291 11.4265C83.1742 11.1793 82.9727 10.8822 82.8372 10.5533C82.7017 10.2245 82.6351 9.87106 82.6415 9.51524C82.6479 9.02371 82.7825 8.54232 83.0319 8.1193C83.2812 7.69627 83.6367 7.34649 84.0629 7.1044C84.489 6.86232 84.9709 6.73661 85.4605 6.73981C85.9501 6.743 86.4303 6.8749 86.8533 7.12253C87.2632 7.36791 87.6047 7.71316 87.8463 8.12635C88.0927 8.54206 88.2206 9.01774 88.2161 9.50148C88.2231 9.98553 88.095 10.4619 87.8463 10.8766C87.6038 11.2837 87.2621 11.6222 86.8533 11.8599C86.4344 12.094 85.963 12.2171 85.4836 12.2175ZM83.2511 14.7683H87.7093V34.8037H83.2511V14.7683Z" fill="black"/>
<path d="M91.2085 14.7686H95.8653L102.091 33.6833L101.858 34.8039H98.0157L91.2085 14.7686ZM110.897 14.7686L104.049 34.8039H100.05L106.658 14.7686H110.897Z" fill="black"/>
<path d="M114.856 7.12305H119.513V34.8042H114.856V7.12305ZM117.931 23.3359V19.286H123.82V23.3359H117.931ZM136.62 34.8042H130.97L120.698 21.3692L131.196 7.12305H136.195L125.005 22.2495L125.464 20.2761L136.62 34.8042Z" fill="black"/>
<path d="M141.777 12.2175C141.404 12.2307 141.033 12.1671 140.686 12.0312C140.338 11.8952 140.022 11.6894 139.757 11.4265C139.502 11.1793 139.3 10.8822 139.165 10.5533C139.029 10.2245 138.963 9.87106 138.969 9.51524C138.976 9.02371 139.11 8.54232 139.359 8.1193C139.609 7.69627 139.964 7.34649 140.391 7.1044C140.817 6.86232 141.298 6.73661 141.788 6.73981C142.278 6.743 142.758 6.8749 143.181 7.12253C143.591 7.36954 143.935 7.7143 144.181 8.12635C144.422 8.54395 144.547 9.01878 144.544 9.50148C144.55 9.98452 144.424 10.4601 144.181 10.8766C143.934 11.2825 143.59 11.6205 143.181 11.8599C142.752 12.1006 142.268 12.2239 141.777 12.2175ZM139.544 14.7683H144.003V34.8037H139.544V14.7683Z" fill="black"/>
<path d="M147.427 18.392V14.7685H160V18.392H147.427ZM149.81 10.5605H154.275V29.0492C154.248 29.3796 154.287 29.7117 154.39 30.0269C154.492 30.342 154.655 30.6338 154.871 30.885C155.413 31.3337 156.11 31.5489 156.809 31.4832C157.341 31.4883 157.87 31.3974 158.37 31.215C158.861 31.0225 159.322 30.761 159.74 30.4381V34.1852C159.184 34.5502 158.563 34.8048 157.912 34.9348C157.161 35.108 156.394 35.1932 155.624 35.189C154.435 35.2451 153.252 34.9793 152.2 34.4192C151.39 33.9433 150.752 33.2209 150.378 32.3565C149.998 31.4734 149.807 30.5198 149.817 29.5579L149.81 10.5605Z" fill="black"/>
<path d="M56.1382 7.12288H60.795V34.8041H56.1382V7.12288ZM65.2122 30.7888C66.4763 30.8058 67.7332 30.5963 68.924 30.1701C70.0176 29.7717 71.0044 29.1246 71.8072 28.2793C72.6659 27.3413 73.3109 26.2268 73.6973 25.0133C74.179 23.4841 74.4103 21.8866 74.3822 20.283C74.4191 18.7755 74.1872 17.2735 73.6973 15.848C73.3478 14.8061 72.7412 13.87 71.9341 13.127C71.127 12.384 70.1456 11.8582 69.0815 11.5988C67.9449 11.3071 66.7757 11.1641 65.6026 11.1727H58.6378V7.12288H65.445C67.2914 7.10691 69.1324 7.32653 70.9237 7.7762C72.518 8.17576 74.0111 8.9063 75.3067 9.92115C76.5943 10.9738 77.5995 12.3328 78.2309 13.8746C78.9866 15.8302 79.3452 17.9179 79.2855 20.0147C79.327 22.2042 78.9696 24.383 78.2309 26.4435C77.5874 28.19 76.5679 29.7722 75.245 31.0775C73.963 32.3241 72.4284 33.2788 70.7457 33.8761C68.9303 34.5122 67.0185 34.8261 65.0958 34.8041H58.6721V30.7888H65.2122Z" fill="black"/>
<path d="M85.4836 12.2175C85.1053 12.2354 84.7274 12.1743 84.3738 12.0382C84.0202 11.9021 83.6985 11.6937 83.4291 11.4265C83.1742 11.1793 82.9727 10.8822 82.8372 10.5533C82.7017 10.2245 82.6351 9.87106 82.6415 9.51524C82.6479 9.02371 82.7825 8.54232 83.0319 8.1193C83.2812 7.69627 83.6367 7.34649 84.0629 7.1044C84.489 6.86232 84.9709 6.73661 85.4605 6.73981C85.9501 6.743 86.4303 6.8749 86.8533 7.12253C87.2632 7.36791 87.6047 7.71316 87.8463 8.12635C88.0927 8.54206 88.2206 9.01774 88.2161 9.50148C88.2231 9.98553 88.095 10.4619 87.8463 10.8766C87.6038 11.2837 87.2621 11.6222 86.8533 11.8599C86.4344 12.094 85.963 12.2171 85.4836 12.2175ZM83.2511 14.7683H87.7093V34.8037H83.2511V14.7683Z" fill="black"/>
<path d="M91.2085 14.7686H95.8653L102.091 33.6833L101.858 34.8039H98.0157L91.2085 14.7686ZM110.897 14.7686L104.049 34.8039H100.05L106.658 14.7686H110.897Z" fill="black"/>
<path d="M114.856 7.12305H119.513V34.8042H114.856V7.12305ZM117.931 23.3359V19.286H123.82V23.3359H117.931ZM136.62 34.8042H130.97L120.698 21.3692L131.196 7.12305H136.195L125.005 22.2495L125.464 20.2761L136.62 34.8042Z" fill="black"/>
<path d="M141.777 12.2175C141.404 12.2307 141.033 12.1671 140.686 12.0312C140.338 11.8952 140.022 11.6894 139.757 11.4265C139.502 11.1793 139.3 10.8822 139.165 10.5533C139.029 10.2245 138.963 9.87106 138.969 9.51524C138.976 9.02371 139.11 8.54232 139.359 8.1193C139.609 7.69627 139.964 7.34649 140.391 7.1044C140.817 6.86232 141.298 6.73661 141.788 6.73981C142.278 6.743 142.758 6.8749 143.181 7.12253C143.591 7.36954 143.935 7.7143 144.181 8.12635C144.422 8.54395 144.547 9.01878 144.544 9.50148C144.55 9.98452 144.424 10.4601 144.181 10.8766C143.934 11.2825 143.59 11.6205 143.181 11.8599C142.752 12.1006 142.268 12.2239 141.777 12.2175ZM139.544 14.7683H144.003V34.8037H139.544V14.7683Z" fill="black"/>
<path d="M147.427 18.392V14.7685H160V18.392H147.427ZM149.81 10.5605H154.275V29.0492C154.248 29.3796 154.287 29.7117 154.39 30.0269C154.492 30.342 154.655 30.6338 154.871 30.885C155.413 31.3337 156.11 31.5489 156.809 31.4832C157.341 31.4883 157.87 31.3974 158.37 31.215C158.861 31.0225 159.322 30.761 159.74 30.4381V34.1852C159.184 34.5502 158.563 34.8048 157.912 34.9348C157.161 35.108 156.394 35.1932 155.624 35.189C154.435 35.2451 153.252 34.9793 152.2 34.4192C151.39 33.9433 150.752 33.2209 150.378 32.3565C149.998 31.4734 149.807 30.5198 149.817 29.5579L149.81 10.5605Z" fill="black"/>
</svg>
